<?xml version="1.0" encoding="iso-8859-1"?>
<!-- Uploaded to: SVG Repo, www.svgrepo.com, Generator: SVG Repo Mixer Tools -->
<svg fill="#000000" height="800px" width="800px" version="1.1" id="Capa_1" xmlns="http://www.w3.org/2000/svg" xmlns:xlink="http://www.w3.org/1999/xlink" 
	 viewBox="0 0 418.089 418.089" xml:space="preserve">
<path id="XMLID_947_" d="M340.85,273.114V72.833c0-11.666-9.492-21.157-21.158-21.157c-11.666,0-21.157,9.491-21.157,21.157v200.28
	c0,11.666,9.492,21.157,21.159,21.157C331.359,294.271,340.85,284.78,340.85,273.114z M326.85,273.114
	c0,3.946-3.211,7.157-7.158,7.157c-3.946,0-7.157-3.211-7.157-7.157V72.833c0-3.88,3.278-7.157,7.159-7.157
	c3.946,0,7.156,3.211,7.156,7.157V273.114z M250.31,53.764C258.548,22.109,287.077,0,319.686,0
	c32.644,0,61.175,22.109,69.395,53.768c0.972,3.741-1.274,7.563-5.016,8.534c-0.59,0.153-1.182,0.227-1.764,0.227
	c-3.112,0-5.952-2.091-6.771-5.243C368.913,31.8,345.954,14,319.698,14c-26.249,0-49.206,17.801-55.839,43.289
	c-0.974,3.742-4.797,5.98-8.538,5.012C251.58,61.328,249.336,57.505,250.31,53.764z M286.122,341.183c3.866,0,7,3.134,7,7
	s-3.134,7-7,7h-1.974c-3.866,0-7-3.134-7-7s3.134-7,7-7H286.122z M317.907,341.183c3.866,0,7,3.134,7,7s-3.134,7-7,7h-1.973
	c-3.866,0-7-3.134-7-7s3.134-7,7-7H317.907z M319.695,40.109c-17.409,0-31.565,14.159-31.565,31.563c0,3.866-3.134,7-7,7
	s-7-3.134-7-7c0-25.123,20.437-45.563,45.558-45.563c25.128,0,45.565,20.439,45.565,45.563c0,3.866-3.134,7-7,7s-7-3.134-7-7
	C351.252,54.268,337.096,40.109,319.695,40.109z M102.155,341.183c3.866,0,7,3.134,7,7s-3.134,7-7,7h-1.974c-3.866,0-7-3.134-7-7
	s3.134-7,7-7H102.155z M133.94,341.183c3.866,0,7,3.134,7,7s-3.134,7-7,7h-1.973c-3.866,0-7-3.134-7-7s3.134-7,7-7H133.94z
	 M254.333,341.183c3.866,0,7,3.134,7,7s-3.134,7-7,7h-1.973c-3.866,0-7-3.134-7-7s3.134-7,7-7H254.333z M391.357,252.555h-30.781
	c-3.866,0-7,3.134-7,7s3.134,7,7,7h30.781c7.02,0,12.731,5.711,12.731,12.73v86.817c0,7.02-5.711,12.73-12.731,12.73H26.73
	c-7.02,0-12.73-5.711-12.73-12.73v-86.817c0-7.02,5.711-12.73,12.73-12.73h253.038c3.866,0,7-3.134,7-7s-3.134-7-7-7H26.73
	c-14.739,0-26.73,11.991-26.73,26.73v86.817c0,14.244,11.2,25.922,25.256,26.69v18.295c0,3.866,3.134,7,7,7h50.511
	c3.866,0,7-3.134,7-7v-18.255h238.554v18.255c0,3.866,3.134,7,7,7h50.512c3.866,0,7-3.134,7-7v-18.295
	c14.057-0.769,25.256-12.446,25.256-26.69v-86.817C418.089,264.546,406.097,252.555,391.357,252.555z M75.767,404.088H39.256
	v-11.255h36.511V404.088z M378.833,404.088h-36.512v-11.255h36.512V404.088z M165.728,341.183c3.866,0,7,3.134,7,7s-3.134,7-7,7
	h-1.973c-3.866,0-7-3.134-7-7s3.134-7,7-7H165.728z"/>
</svg>